HIERARCHY
ROOT Hips
{
  OFFSET -1.18442 96.2759 68.9828
  CHANNELS 6 Xposition Yposition Zposition Zrotation Xrotation Yrotation
  JOINT Chest
  {
    OFFSET 0 10.5691 -1.07959
    CHANNELS 6 Xposition Yposition Zposition Zrotation Xrotation Yrotation
    JOINT Chest2
    {
      OFFSET 0 11.6675 1.08235
      CHANNELS 6 Xposition Yposition Zposition Zrotation Xrotation Yrotation
      JOINT Chest3
      {
        OFFSET 0 10.5876 0
        CHANNELS 6 Xposition Yposition Zposition Zrotation Xrotation Yrotation
        JOINT Chest4
        {
          OFFSET 0 10.5876 0
          CHANNELS 6 Xposition Yposition Zposition Zrotation Xrotation Yrotation
          JOINT Neck
          {
            OFFSET 0 14.88 0
            CHANNELS 6 Xposition Yposition Zposition Zrotation Xrotation Yrotation
            JOINT Head
            {
              OFFSET 0 9.61472 2.16553
              CHANNELS 6 Xposition Yposition Zposition Zrotation Xrotation Yrotation
              End Site
              {
                OFFSET 0 0 0
              }
            }
          }
          JOINT RightCollar
          {
            OFFSET -3.23953 8.30385 0
            CHANNELS 6 Xposition Yposition Zposition Zrotation Xrotation Yrotation
            JOINT RightShoulder
            {
              OFFSET -15.1725 0 0
              CHANNELS 6 Xposition Yposition Zposition Zrotation Xrotation Yrotation
              JOINT RightElbow
              {
                OFFSET -32.4113 0 0
                CHANNELS 6 Xposition Yposition Zposition Zrotation Xrotation Yrotation
                JOINT RightWrist
                {
                  OFFSET -26.4919 0 1.0813
                  CHANNELS 6 Xposition Yposition Zposition Zrotation Xrotation Yrotation
                  End Site
                  {
                    OFFSET 0 0 0
                  }
                }
              }
            }
          }
          JOINT LeftCollar
          {
            OFFSET 3.23953 8.30385 0
            CHANNELS 6 Xposition Yposition Zposition Zrotation Xrotation Yrotation
            JOINT LeftShoulder
            {
              OFFSET 15.1725 0 0
              CHANNELS 6 Xposition Yposition Zposition Zrotation Xrotation Yrotation
              JOINT LeftElbow
              {
                OFFSET 32.4113 0 0
                CHANNELS 6 Xposition Yposition Zposition Zrotation Xrotation Yrotation
                JOINT LeftWrist
                {
                  OFFSET 26.4919 0 1.08131
                  CHANNELS 6 Xposition Yposition Zposition Zrotation Xrotation Yrotation
                  End Site
                  {
                    OFFSET 0 0 0
                  }
                }
              }
            }
          }
        }
      }
    }
  }
  JOINT RightHip
  {
    OFFSET -8.63673 0.00547028 0
    CHANNELS 6 Xposition Yposition Zposition Zrotation Xrotation Yrotation
    JOINT RightKnee
    {
      OFFSET 0 -44.4932 -2.13963
      CHANNELS 6 Xposition Yposition Zposition Zrotation Xrotation Yrotation
      JOINT RightAnkle
      {
        OFFSET 0 -43.4408 -3.54051
        CHANNELS 6 Xposition Yposition Zposition Zrotation Xrotation Yrotation
        JOINT RightToe
        {
          OFFSET 0 -8.39271 19.1252
          CHANNELS 6 Xposition Yposition Zposition Zrotation Xrotation Yrotation
          End Site
          {
            OFFSET 0 0 0
          }
        }
      }
    }
  }
  JOINT LeftHip
  {
    OFFSET 8.63673 0.00547028 0
    CHANNELS 6 Xposition Yposition Zposition Zrotation Xrotation Yrotation
    JOINT LeftKnee
    {
      OFFSET 0 -44.4933 -2.13963
      CHANNELS 6 Xposition Yposition Zposition Zrotation Xrotation Yrotation
      JOINT LeftAnkle
      {
        OFFSET 0 -43.4407 -3.5405
        CHANNELS 6 Xposition Yposition Zposition Zrotation Xrotation Yrotation
        JOINT LeftToe
        {
          OFFSET 0 -8.39273 19.1252
          CHANNELS 6 Xposition Yposition Zposition Zrotation Xrotation Yrotation
          End Site
          {
            OFFSET 0 0 0
          }
        }
      }
    }
  }
}
MOTION
Frames:	5
Frame Time:	0.0333333
-1.18687 96.2812 68.9794 -0.00444153 -0.00421619 179.988 -1.55431e-015 10.5691 -1.07959 0.00583704 -0.00647352 -0.00825581 -1.33227e-015 11.6675 1.08235 0.0116756 -0.0129502 -0.0165093 -1.11022e-015 10.5876 -1.42109e-014 0.0116756 -0.0129502 -0.0165093 -1.11022e-015 10.5876 -1.42109e-014 0.0116756 -0.0129502 -0.0165093 -1.9984e-015 14.88 -9.16308e-007 0.308174 -0.0379687 -0.100681 -8.88178e-016 9.61472 2.16553 -0.637218 0.180916 0.138737 -3.23953 8.30385 0 -4.61655e-018 0 -0 -15.1725 -4.76837e-006 0 -1.73822 -27.5001 -5.53122 -32.4113 6.23681e-007 -3.26653e-007 12.796 -2.99959 2.85557 -26.4919 -6.78398e-006 1.0813 -19.8736 0.486275 -4.50342 3.23953 8.30385 -1.42109e-014 -4.61655e-018 0 -0 15.1725 -4.76837e-006 -1.42109e-014 -3.80438 -35.4241 -4.79365 32.4113 1.87382e-008 -2.25444e-006 -11.2878 6.71373 2.34552 26.4919 6.50561e-006 1.08131 18.6831 -0.910131 -3.782 -8.63673 0.00547028 1.42109e-014 -2.23228 -3.39568 -1.5994 1.18523e-006 -44.4932 -2.13963 2.08549 3.07064 1.48152 5.05666e-007 -43.4408 -3.54051 0.0351153 0.384092 0.450482 -2.15983e-007 -8.39271 19.1252 0.146747 -0.00599448 -0.73761 8.63673 0.00547028 1.42109e-014 2.54386 -3.33738 1.08045 -4.98304e-007 -44.4933 -2.13963 -2.75981 2.86698 -0.879739 7.00199e-009 -43.4407 -3.5405 0.0985231 0.572055 -0.0055799 -2.54697e-007 -8.39273 19.1252 -0.00689868 -0.0193968 0.040607 
-1.18914 96.3104 68.9541 -0.00645365 -0.0219557 179.949 -1.55431e-015 10.5691 -1.07959 0.0187999 -0.0264539 -0.0353525 -8.88178e-016 11.6675 1.08235 0.0376402 -0.0528632 -0.0707025 -1.33227e-015 10.5876 1.42109e-014 0.0376402 -0.0528632 -0.0707024 -1.11022e-015 10.5876 -1.42109e-014 0.0376402 -0.0528632 -0.0707024 -1.55431e-015 14.88 -9.16308e-007 1.11352 -0.0806387 -0.335026 -1.33227e-015 9.61472 2.16553 -2.25768 0.566772 0.51689 -3.23953 8.30385 1.42109e-014 -3.2516e-017 -4.96962e-017 -0 -15.1725 -4.76837e-006 0 -1.71311 -27.5369 -5.23413 -32.4113 6.23681e-007 -3.26653e-007 12.6985 -2.50883 2.76448 -26.4919 -6.78398e-006 1.0813 -19.7996 0.399416 -4.01775 3.23953 8.30385 0 -3.2516e-017 -4.96962e-017 -0 15.1725 -4.76837e-006 0 -3.67579 -35.4918 -4.45627 32.4113 1.87382e-008 -2.25444e-006 -11.2532 6.72621 2.34558 26.4919 6.50561e-006 1.08131 18.7624 -0.910574 -3.77968 -8.63673 0.00547028 -1.42109e-014 -2.16142 -3.37233 -1.73403 1.18523e-006 -44.4932 -2.13963 1.90537 3.04426 1.71334 5.05666e-007 -43.4408 -3.54051 0.221118 0.398679 0.61698 -2.15983e-007 -8.39271 19.1252 0.202029 -0.111457 -1.22039 8.63673 0.00547028 0 2.53585 -3.14523 1.07143 -4.98304e-007 -44.4933 -2.13963 -2.78041 2.50346 -0.924009 7.00199e-009 -43.4407 -3.5405 0.0288715 0.856983 0.0424202 -2.54697e-007 -8.39273 19.1252 -0.0342595 -0.364261 0.311167 
-1.17072 96.3511 68.9033 0.0271076 -0.0460927 179.94 -1.77636e-015 10.5691 -1.07959 0.00523625 -0.0285857 -0.042094 -1.11022e-015 11.6675 1.08235 0.011311 -0.057591 -0.0835484 -1.44329e-015 10.5876 0 0.011311 -0.057591 -0.0835482 -1.33227e-015 10.5876 -1.42109e-014 0.011311 -0.057591 -0.0835484 -1.77636e-015 14.88 -9.16308e-007 0.787149 0.19814 -0.149743 -1.77636e-015 9.61472 2.16553 -1.40656 -0.00912398 0.401933 -3.23953 8.30385 -1.42109e-014 1.94126e-019 -4.96962e-017 -0 -15.1725 -4.76837e-006 1.42109e-014 -1.53652 -27.6076 -5.2077 -32.4113 6.23681e-007 -3.26653e-007 12.6963 -2.8119 2.85955 -26.4919 -6.78398e-006 1.0813 -20.0377 0.462694 -4.34816 3.23953 8.30385 0 1.94126e-019 -4.96962e-017 -0 15.1725 -4.76837e-006 1.42109e-014 -3.55931 -35.9526 -4.42967 32.4113 1.87382e-008 -2.25444e-006 -11.0284 6.7286 2.34559 26.4919 6.50561e-006 1.08131 18.555 -0.905932 -3.81203 -8.63673 0.00547028 0 -2.13919 -3.0657 -1.8304 1.18523e-006 -44.4932 -2.13963 1.95566 2.41528 1.90815 5.05666e-007 -43.4408 -3.54051 0.158247 0.632344 0.520337 -2.15983e-007 -8.39271 19.1252 0.211994 -0.172836 -1.3923 8.63673 0.00547028 -1.42109e-014 2.62579 -2.99623 1.4729 -4.98304e-007 -44.4933 -2.13963 -2.84193 2.28782 -1.48216 7.00199e-009 -43.4407 -3.5405 -0.0502185 1.02935 0.00744498 -2.54697e-007 -8.39273 19.1252 -0.0660961 -0.710442 0.613606 
-1.16049 96.3545 68.8795 0.0260122 -0.0842678 179.949 -1.55431e-015 10.5691 -1.07959 0.00326221 -0.0303804 -0.0422219 -1.33227e-015 11.6675 1.08235 0.0124753 -0.0623455 -0.0751965 -1.44329e-015 10.5876 0 0.0124753 -0.0623455 -0.0751965 -9.99201e-016 10.5876 -1.42109e-014 0.0124753 -0.0623455 -0.0751964 -1.9984e-015 14.88 -9.16308e-007 0.899578 0.369721 -0.21511 -1.77636e-015 9.61472 2.16553 -1.54418 -0.313694 0.401044 -3.23953 8.30385 0 -8.73565e-019 -4.96962e-017 -4.96962e-017 -15.1725 -4.76837e-006 0 -1.55422 -27.5839 -5.2217 -32.4113 6.23681e-007 -3.26653e-007 12.7332 -2.9216 2.81816 -26.4919 -6.78398e-006 1.0813 -20.2035 0.485638 -4.45516 3.23953 8.30385 0 -8.73565e-019 -4.96962e-017 -4.96962e-017 15.1725 -4.76837e-006 -1.42109e-014 -3.54582 -35.8477 -4.48797 32.4113 1.87382e-008 -2.25444e-006 -11.0843 6.61411 2.34505 26.4919 6.50561e-006 1.08131 18.5739 -0.892977 -3.72724 -8.63673 0.00547028 0 -2.13458 -3.07047 -1.81429 1.18523e-006 -44.4932 -2.13963 1.96365 2.37751 1.95272 5.05666e-007 -43.4408 -3.54051 0.15864 0.690566 0.475733 -2.15983e-007 -8.39271 19.1252 0.135496 -0.332265 -1.33204 8.63673 0.00547028 0 2.64414 -3.06166 1.56778 -4.98304e-007 -44.4933 -2.13963 -2.85896 2.37989 -1.63204 7.00199e-009 -43.4407 -3.5405 -0.0879021 1.05981 0.0408639 -2.54697e-007 -8.39273 19.1252 -0.0682747 -0.782488 0.654772 
-1.15616 96.3562 68.855 0.0274468 -0.123863 179.947 -1.55431e-015 10.5691 -1.07959 0.00514183 -0.0318802 -0.0391594 -8.88178e-016 11.6675 1.08235 0.010576 -0.0637027 -0.0644691 -1.33227e-015 10.5876 0 0.010576 -0.0637027 -0.064469 -1.33227e-015 10.5876 -2.84217e-014 0.010576 -0.0637027 -0.0644691 -1.77636e-015 14.88 -9.16308e-007 0.98072 0.255675 -0.23878 -1.33227e-015 9.61472 2.16553 -1.63178 -0.215702 0.422031 -3.23953 8.30385 1.42109e-014 -4.65902e-018 1.2424e-017 4.96962e-017 -15.1725 -4.76837e-006 0 -1.57289 -27.6059 -5.29127 -32.4113 6.23681e-007 -3.26653e-007 12.7271 -2.91397 2.81892 -26.4919 -6.78398e-006 1.0813 -20.212 0.484933 -4.44977 3.23953 8.30385 0 -4.65902e-018 1.2424e-017 4.96962e-017 15.1725 -4.76837e-006 0 -3.54367 -35.8498 -4.55779 32.4113 1.87382e-008 -2.25444e-006 -11.0859 6.70213 2.34547 26.4919 6.50561e-006 1.08131 18.6294 -0.904511 -3.78093 -8.63673 0.00547028 0 -2.11182 -3.12003 -1.84182 1.18523e-006 -44.4932 -2.13963 1.9321 2.43135 1.88768 5.05666e-007 -43.4408 -3.54051 0.164831 0.630298 0.520303 -2.15983e-007 -8.39271 19.1252 0.193848 -0.197373 -1.35132 8.63673 0.00547028 0 2.61552 -3.02886 1.30799 -4.98304e-007 -44.4933 -2.13963 -2.83157 2.24207 -1.37936 7.002e-009 -43.4407 -3.5405 -0.0403902 1.09805 0.126353 -2.54697e-007 -8.39273 19.1252 -0.0343551 -0.79225 0.48928 
